<svg width="64" height="64" viewBox="0 0 64 64" fill="none" xmlns="http://www.w3.org/2000/svg">
  <defs>
    <linearGradient id="gradient" x1="0%" y1="0%" x2="100%" y2="100%">
      <stop offset="0%" style="stop-color:#8B5CF6;stop-opacity:1" />
      <stop offset="50%" style="stop-color:#EC4899;stop-opacity:1" />
      <stop offset="100%" style="stop-color:#06B6D4;stop-opacity:1" />
    </linearGradient>
  </defs>
  <rect width="64" height="64" rx="16" fill="url(#gradient)"/>
  <!-- Modern berry-like pattern -->
  <g transform="translate(16, 12)">
    <!-- Leaves -->
    <path d="M12 4 C8 4, 6 6, 6 8 C6 6, 8 4, 12 4 Z" fill="white" opacity="0.9"/>
    <path d="M20 4 C24 4, 26 6, 26 8 C26 6, 24 4, 20 4 Z" fill="white" opacity="0.9"/>
    
    <!-- Berry circles in a clean pattern -->
    <circle cx="16" cy="14" r="2" fill="white" opacity="0.95"/>
    <circle cx="12" cy="18" r="2" fill="white" opacity="0.9"/>
    <circle cx="20" cy="18" r="2" fill="white" opacity="0.9"/>
    <circle cx="16" cy="22" r="2" fill="white" opacity="0.95"/>
    <circle cx="12" cy="26" r="2" fill="white" opacity="0.9"/>
    <circle cx="20" cy="26" r="2" fill="white" opacity="0.9"/>
    <circle cx="16" cy="30" r="2" fill="white" opacity="0.95"/>
    <circle cx="14" cy="34" r="1.5" fill="white" opacity="0.85"/>
    <circle cx="18" cy="34" r="1.5" fill="white" opacity="0.85"/>
    <circle cx="16" cy="37" r="1.5" fill="white" opacity="0.8"/>
  </g>
</svg>
