<svg width="64" height="64" viewBox="0 0 64 64" fill="none" xmlns="http://www.w3.org/2000/svg">
  <defs>
    <linearGradient id="gradient" x1="0%" y1="0%" x2="100%" y2="100%">
      <stop offset="0%" style="stop-color:#8B5CF6;stop-opacity:1" />
      <stop offset="50%" style="stop-color:#EC4899;stop-opacity:1" />
      <stop offset="100%" style="stop-color:#3B82F6;stop-opacity:1" />
    </linearGradient>
  </defs>
  <rect width="64" height="64" rx="16" fill="url(#gradient)"/>
  <!-- Raspberry-like icon -->
  <g transform="translate(16, 12)">
    <!-- Leaves -->
    <path d="M8 4 C4 4, 2 6, 2 8 C2 6, 4 4, 8 4 Z" fill="white" opacity="0.9"/>
    <path d="M24 4 C28 4, 30 6, 30 8 C30 6, 28 4, 24 4 Z" fill="white" opacity="0.9"/>
    
    <!-- Berry circles -->
    <circle cx="16" cy="16" r="2.5" fill="white"/>
    <circle cx="10" cy="20" r="2.5" fill="white"/>
    <circle cx="22" cy="20" r="2.5" fill="white"/>
    <circle cx="16" cy="24" r="2.5" fill="white"/>
    <circle cx="10" cy="28" r="2.5" fill="white"/>
    <circle cx="22" cy="28" r="2.5" fill="white"/>
    <circle cx="16" cy="32" r="2.5" fill="white"/>
    <circle cx="13" cy="36" r="2" fill="white"/>
    <circle cx="19" cy="36" r="2" fill="white"/>
    <circle cx="16" cy="40" r="2" fill="white"/>
  </g>
</svg>
